<svg xmlns="http://www.w3.org/2000/svg" viewBox="0 0 100 100"><g class="nc-icon-wrapper"><defs/><path class="a" d="M20.9 82.253a29.522 29.522 0 0 1 17.269-22.28" fill="none" stroke="#ffffff" stroke-linecap="round" stroke-linejoin="round"/><path class="a" d="M79.105 82.253a29.522 29.522 0 0 0-17.269-22.28" fill="none" stroke="#ffffff" stroke-linecap="round" stroke-linejoin="round"/><path class="a" d="M47.768 57.584Q48.872 57.5 50 57.5t2.24.084" fill="none" stroke="#ffffff" stroke-linecap="round" stroke-linejoin="round"/><path class="a" d="M64.433 92.1v-.578a4.243 4.243 0 0 1 2.281-3.768 6.261 6.261 0 0 0 2.986-5.33.271.271 0 0 0-.269-.265h-3.046a1.561 1.561 0 0 1-1.562-1.559v-1.953a1.562 1.562 0 0 1 1.562-1.562h6.674a3.9 3.9 0 0 0 3.667-2.565" fill="none" stroke="#ffffff" stroke-linecap="round" stroke-linejoin="round"/><path class="a" d="M39.156 73.531A7.728 7.728 0 0 0 42.187 88.4h4.587a2.047 2.047 0 0 1 2.047 2.048v1.66a1.74 1.74 0 0 0 1.734 1.756A1.758 1.758 0 0 1 52.22 95" fill="none" stroke="#ffffff" stroke-linecap="round" stroke-linejoin="round"/><path class="a" d="M52.184 72.792h-4.36" fill="none" stroke="#ffffff" stroke-linecap="round" stroke-linejoin="round"/><path class="a" d="M50.582 60.6a3.591 3.591 0 0 0-.536 1.386 3.907 3.907 0 0 0 2.138 4.164" fill="none" stroke="#ffffff" stroke-linecap="round" stroke-linejoin="round"/><g><path class="a" d="M61.377 48.977h3.16V46.07a14.533 14.533 0 0 0-29.066 0v2.907" fill="none" stroke="#ffffff" stroke-linecap="round" stroke-linejoin="round"/><path class="a" d="M54.181 32.149a14.6 14.6 0 0 0-8.348 0L50 36.616z" fill="none" stroke="#ffffff" stroke-linecap="round" stroke-linejoin="round"/><path class="a" d="M39.444 54.24a2.543 2.543 0 0 1-3.973-2.1v-3.163h3.159" fill="none" stroke="#ffffff" stroke-linecap="round" stroke-linejoin="round"/><path class="a" d="M60.559 54.237a2.543 2.543 0 0 0 3.977-2.1v-3.16h-3.159" fill="none" stroke="#ffffff" stroke-linecap="round" stroke-linejoin="round"/><path class="a" d="M40.558 59.135v-4.85H59.45v4.676" fill="none" stroke="#ffffff" stroke-linecap="round" stroke-linejoin="round"/><path class="a" d="M52.184 60.603h-4.36" fill="none" stroke="#ffffff" stroke-linecap="round" stroke-linejoin="round"/><path class="a" d="M59.45 71.233V58.044a3.634 3.634 0 0 0-4.008-3.614 3.775 3.775 0 0 0-3.258 3.821V73.3" fill="none" stroke="#ffffff" stroke-linecap="round" stroke-linejoin="round"/><path class="a" d="M59.4 74.757a1.449 1.449 0 0 0 1.3-2.108 4.36 4.36 0 0 0-3.818-2.249h-.726a4.359 4.359 0 0 0-3.777 2.18 1.452 1.452 0 0 0 1.259 2.18z" fill="none" stroke="#ffffff" stroke-linecap="round" stroke-linejoin="round"/><path class="a" d="M40.558 71.233V58.044a3.634 3.634 0 0 1 4.008-3.614 3.775 3.775 0 0 1 3.258 3.821V73.3" fill="none" stroke="#ffffff" stroke-linecap="round" stroke-linejoin="round"/><path class="a" d="M40.612 74.757a1.449 1.449 0 0 1-1.3-2.108 4.358 4.358 0 0 1 3.813-2.249h.727a4.359 4.359 0 0 1 3.777 2.18 1.453 1.453 0 0 1-1.259 2.18z" fill="none" stroke="#ffffff" stroke-linecap="round" stroke-linejoin="round"/><g><path class="a" d="M60.24 54.285H39.768A1.112 1.112 0 0 1 38.63 53.2v-13a1.112 1.112 0 0 1 1.138-1.083H60.24a1.111 1.111 0 0 1 1.137 1.083v13a1.111 1.111 0 0 1-1.137 1.085z" fill="none" stroke="#ffffff" stroke-linecap="round" stroke-linejoin="round"/><path class="a" d="M51.792 44.941a1.836 1.836 0 0 0-1.792.772 1.836 1.836 0 0 0-1.788-.772c-1.023.224-1.609 1.511-1.31 2.875s1.37 2.287 2.392 2.063A1.511 1.511 0 0 0 50 49.5a1.5 1.5 0 0 0 .705.383c1.023.224 2.094-.7 2.393-2.063s-.284-2.655-1.306-2.879z" fill="none" stroke="#ffffff" stroke-linecap="round" stroke-linejoin="round"/><path class="a" d="M50.653 43.594l1.263-1.264" fill="none" stroke="#ffffff" stroke-linecap="round" stroke-linejoin="round"/></g></g><g><path class="a" d="M58.723 17.79a1.779 1.779 0 0 1-.183 3.523 8.72 8.72 0 0 1-17.073 0 1.78 1.78 0 0 1-.183-3.523" fill="none" stroke="#ffffff" stroke-linecap="round" stroke-linejoin="round"/><path class="a" d="M51.456 23.549a3.247 3.247 0 0 1-2.907 0" fill="none" stroke="#ffffff" stroke-linecap="round" stroke-linejoin="round"/><path class="a" d="M50 5a9.692 9.692 0 0 1 9.445 9.843v1.688a1.454 1.454 0 0 1-1.1 1.41c-.149.037-.941.247-1.081.247a.727.727 0 0 1-.725-.727v-2.927c0-1.363-.84-3.42-2.2-3.42a1.579 1.579 0 0 0-.831.24 7.189 7.189 0 0 1-7.009 0 1.573 1.573 0 0 0-.83-.24c-1.363 0-2.2 2.057-2.2 3.42v2.927a.727.727 0 0 1-.726.727c-.139 0-.931-.21-1.08-.247a1.454 1.454 0 0 1-1.1-1.41v-1.688A9.691 9.691 0 0 1 50 5z" fill="none" stroke="#ffffff" stroke-linecap="round" stroke-linejoin="round"/><path class="a" d="M46.075 18.08a1.237 1.237 0 0 1 1.749 0" fill="none" stroke="#ffffff" stroke-linecap="round" stroke-linejoin="round"/><path class="a" d="M52.184 18.08a1.237 1.237 0 0 1 1.749 0" fill="none" stroke="#ffffff" stroke-linecap="round" stroke-linejoin="round"/></g></g></svg>
