<svg xmlns="http://www.w3.org/2000/svg" viewBox="0 0 100 100"><g class="nc-icon-wrapper"><defs/><path class="a" d="M59.289 42.846A60.824 60.824 0 0 1 81.36 51.77" fill="none" stroke="#ffffff" stroke-linecap="round" stroke-linejoin="round" stroke-dasharray="4 5"/><path class="a" d="M20.159 50.519a53.338 53.338 0 0 1 16.712-6.977" fill="none" stroke="#ffffff" stroke-linecap="round" stroke-linejoin="round" stroke-dasharray="4 5"/><path class="b" d="M56.293 27.592h7.5a3.032 3.032 0 0 1 3.031 3.033v11.254a.758.758 0 0 1-.758.758h-6.764" fill="none" stroke="#ffffff" stroke-linecap="round" stroke-linejoin="round"/><path class="b" d="M56.289 39.627V25.341a.757.757 0 0 0-.757-.758l-21.05-.008a.758.758 0 0 0-.759.757l-.006 16.537a.758.758 0 0 0 .758.758h2.25" fill="none" stroke="#ffffff" stroke-linecap="round" stroke-linejoin="round"/><path class="b" d="M42.748 42.631l10.531.004" fill="none" stroke="#ffffff" stroke-linecap="round" stroke-linejoin="round"/><path class="b" d="M56.289 39.627l-22.566-.009v2.251a.758.758 0 0 0 .758.758" fill="none" stroke="#ffffff" stroke-linecap="round" stroke-linejoin="round"/><path class="b" d="M36.73 42.628a3.009 3.009 0 1 0 3.01-3.007 3.01 3.01 0 0 0-3.01 3.007z" fill="none" stroke="#ffffff" stroke-linecap="round" stroke-linejoin="round"/><path class="b" d="M53.279 42.635a3.009 3.009 0 1 0 3.01-3.008 3.009 3.009 0 0 0-3.01 3.008z" fill="none" stroke="#ffffff" stroke-linecap="round" stroke-linejoin="round"/><path class="b" d="M63.054 35.117h-3a.759.759 0 0 1-.758-.759v-3a.758.758 0 0 1 .758-.758H62.3a1.516 1.516 0 0 1 1.516 1.516v2.239a.758.758 0 0 1-.762.762z" fill="none" stroke="#ffffff" stroke-linecap="round" stroke-linejoin="round"/><path class="b" d="M63.809 42.639h2.251a.758.758 0 0 0 .758-.758v-3h-2.249a.758.758 0 0 0-.758.758z" fill="none" stroke="#ffffff" stroke-linecap="round" stroke-linejoin="round"/><g><path class="b" d="M9.926 64.371a51.8 51.8 0 0 1 80-.54" fill="none" stroke="#ffffff" stroke-linecap="round" stroke-linejoin="round"/><path class="b" d="M65.06 47.388h-7.7a7.114 7.114 0 0 0-7.131 5.705 6.861 6.861 0 0 0 6.763 8.007A5.5 5.5 0 0 1 62.3 68a5.628 5.628 0 0 1-5.53 4.075H37.2a15.012 15.012 0 0 0-10.543 4.333" fill="none" stroke="#ffffff" stroke-linecap="round" stroke-linejoin="round"/></g><path class="b" d="M86.3 23.6H74.457a2.961 2.961 0 0 0-2.957 2.956V38.4a2.961 2.961 0 0 0 2.961 2.961h2.221l3.039 6.079a.741.741 0 0 0 1.325 0l3.039-6.079H86.3a2.961 2.961 0 0 0 2.963-2.961V26.556A2.96 2.96 0 0 0 86.3 23.6z" fill="none" stroke="#ffffff" stroke-linecap="round" stroke-linejoin="round"/><path class="b" d="M78.932 36.825a1.811 1.811 0 0 1-1.282-.531l-2.417-2.417a1.813 1.813 0 0 1 2.567-2.563l1.135 1.135 3.754-3.881a1.812 1.812 0 1 1 2.563 2.563l-5.035 5.163a1.807 1.807 0 0 1-1.285.531z" fill="none" stroke="#ffffff" stroke-linecap="round" stroke-linejoin="round"/><path class="b" d="M25.54 23.6H13.7a2.961 2.961 0 0 0-2.961 2.961V38.4a2.961 2.961 0 0 0 2.961 2.962h2.221l3.04 6.079a.74.74 0 0 0 1.324 0l3.039-6.079h2.216A2.962 2.962 0 0 0 28.5 38.4V26.556a2.961 2.961 0 0 0-2.96-2.956z" fill="none" stroke="#ffffff" stroke-linecap="round" stroke-linejoin="round"/><g><circle class="b" cx="19.618" cy="32.66" r="6.615" fill="none" stroke="#ffffff" stroke-linecap="round" stroke-linejoin="round"/><path class="b" d="M19.863 28.005v-1.96" fill="none" stroke="#ffffff" stroke-linecap="round" stroke-linejoin="round"/><path class="b" d="M19.863 39.275v-1.96" fill="none" stroke="#ffffff" stroke-linecap="round" stroke-linejoin="round"/><path class="b" d="M24.273 32.66h1.96" fill="none" stroke="#ffffff" stroke-linecap="round" stroke-linejoin="round"/><path class="b" d="M13.003 32.66h1.96" fill="none" stroke="#ffffff" stroke-linecap="round" stroke-linejoin="round"/><path class="b" d="M19.863 33.395l2.45-2.45" fill="none" stroke="#ffffff" stroke-linecap="round" stroke-linejoin="round"/><path class="b" d="M19.779 33.395l-1.386-1.386" fill="none" stroke="#ffffff" stroke-linecap="round" stroke-linejoin="round"/></g></g></svg>
