<svg xmlns="http://www.w3.org/2000/svg" viewBox="0 0 100 100">
  <g class="nc-icon-wrapper">
    <path
      class="a"
      d="M59.675 77.69a33.215 33.215 0 1 1-5.484-62.09"
      fill="none"
      stroke="#ffffff"
      stroke-linecap="round"
      stroke-linejoin="round"
    />
    <path
      class="a"
      d="M58.261 73.183c-3.469 4.8-7.931 7.694-12.8 7.694-11.045 0-20-14.873-20-33.217s8.954-33.218 20-33.218a13.114 13.114 0 0 1 6.8 1.971"
      fill="none"
      stroke="#ffffff"
      stroke-linecap="round"
      stroke-linejoin="round"
    />
    <path
      class="a"
      d="M45.461 14.442v66.435"
      fill="none"
      stroke="#ffffff"
      stroke-linecap="round"
      stroke-linejoin="round"
    />
    <path
      class="a"
      d="M14.714 35.072h37.547"
      fill="none"
      stroke="#ffffff"
      stroke-linecap="round"
      stroke-linejoin="round"
    />
    <path
      class="a"
      d="M14.714 60.248h37.547"
      fill="none"
      stroke="#ffffff"
      stroke-linecap="round"
      stroke-linejoin="round"
    />
    <g>
      <path
        class="a"
        d="M59.819 30.375c-.112 1.369-.7 3.325-1.875 3.85a.8.8 0 0 0-.479.961 2.223 2.223 0 0 0 2.242 1.652h.112"
        fill="none"
        stroke="#ffffff"
        stroke-linecap="round"
        stroke-linejoin="round"
      />
      <path
        class="a"
        d="M78.876 36.838h3.363a2.223 2.223 0 0 0 2.242-1.652.8.8 0 0 0-.481-.961c-1.175-.525-1.763-2.481-1.875-3.85v-2.27"
        fill="none"
        stroke="#ffffff"
        stroke-linecap="round"
        stroke-linejoin="round"
      />
      <path
        class="a"
        d="M75.032 35.04a14.385 14.385 0 0 1 10.282 13.788v5.538h-5.577"
        fill="none"
        stroke="#ffffff"
        stroke-linecap="round"
        stroke-linejoin="round"
      />
      <path
        class="a"
        d="M63.8 36.383a14.294 14.294 0 0 1 3.112-1.343"
        fill="none"
        stroke="#ffffff"
        stroke-linecap="round"
        stroke-linejoin="round"
      />
      <path
        class="a"
        d="M62.209 54.366h-5.577v-5.538a14.316 14.316 0 0 1 3.187-9.028"
        fill="none"
        stroke="#ffffff"
        stroke-linecap="round"
        stroke-linejoin="round"
      />
      <path
        class="a"
        d="M79.639 63.686c-.236 2.575-.49 1.073-1.9 23.347"
        fill="none"
        stroke="#ffffff"
        stroke-linecap="round"
        stroke-linejoin="round"
      />
      <path
        class="a"
        d="M64.205 87.032c-1.4-22.148-1.659-20.788-1.894-23.3"
        fill="none"
        stroke="#ffffff"
        stroke-linecap="round"
        stroke-linejoin="round"
      />
      <path
        class="a"
        d="M70.973 87.033V68.72"
        fill="none"
        stroke="#ffffff"
        stroke-linecap="round"
        stroke-linejoin="round"
      />
      <path
        class="a"
        d="M70.973 93.083A1.926 1.926 0 0 0 72.906 95H77.2a1.933 1.933 0 0 0 1.523-.738 1.906 1.906 0 0 0 .352-1.644l-1.333-5.585h-6.769z"
        fill="none"
        stroke="#ffffff"
        stroke-linecap="round"
        stroke-linejoin="round"
      />
      <path
        class="a"
        d="M71.77 87.871a2.877 2.877 0 1 0 5.753 0v-.838H71.77z"
        fill="none"
        stroke="#ffffff"
        stroke-linecap="round"
        stroke-linejoin="round"
      />
      <path
        class="a"
        d="M70.973 93.083A1.926 1.926 0 0 1 69.038 95h-4.293a1.937 1.937 0 0 1-1.525-.738 1.9 1.9 0 0 1-.352-1.644l1.332-5.585h6.771z"
        fill="none"
        stroke="#ffffff"
        stroke-linecap="round"
        stroke-linejoin="round"
      />
      <path
        class="a"
        d="M70.176 87.871a2.877 2.877 0 1 1-5.753 0v-.838h5.753z"
        fill="none"
        stroke="#ffffff"
        stroke-linecap="round"
        stroke-linejoin="round"
      />
      <path
        class="a"
        d="M73.321 41.511l1.71-6.47a14.321 14.321 0 0 1 2.992 1.274l.746 3.54a1.594 1.594 0 0 1-2.117 1.821 3.663 3.663 0 0 0-3.446.185 2.609 2.609 0 0 0 .115-.35z"
        fill="none"
        stroke="#ffffff"
        stroke-linecap="round"
        stroke-linejoin="round"
      />
      <path
        class="a"
        d="M63.146 40.068a1.595 1.595 0 0 0 2.148 1.608 3.663 3.663 0 0 1 3.446.185 2.609 2.609 0 0 1-.115-.35l-1.71-6.47a14.321 14.321 0 0 0-2.992 1.274l-.121.572"
        fill="none"
        stroke="#ffffff"
        stroke-linecap="round"
        stroke-linejoin="round"
      />
      <path
        class="b"
        d="M68.028 32.965v1a1.01 1.01 0 0 1-.751.975c-.12.032-.24.065-.358.1l1.71 6.47a2.466 2.466 0 0 0 4.7 0l1.71-6.47a12.12 12.12 0 0 0-.34-.095 1.008 1.008 0 0 1-.749-.977v-1"
        fill="none"
        stroke="#ffffff"
        stroke-linecap="round"
        stroke-linejoin="round"
        stroke-width="1.009px"
      />
      <path
        class="a"
        d="M79.737 55.416v-1.2a5.75 5.75 0 0 1 1.057-3.324 5.757 5.757 0 0 0 .861-3.143"
        fill="none"
        stroke="#ffffff"
        stroke-linecap="round"
        stroke-linejoin="round"
      />
      <path
        class="c"
        d="M67.29 49.971a.918.918 0 0 0-.172.016.927.927 0 0 0 .169 1.838.91.91 0 0 0 .172-.016.927.927 0 0 0-.169-1.838z"
        style=""
        fill="#ffffff"
      />
      <path
        class="a"
        d="M72.626 63.112l-4 .749a1.94 1.94 0 0 1-.853-.03"
        fill="none"
        stroke="#ffffff"
        stroke-linecap="round"
        stroke-linejoin="round"
      />
      <path
        class="a"
        d="M65.63 58.43l-1.512-8.073a1.945 1.945 0 0 1 1.554-2.27l7.648-1.432a1.945 1.945 0 0 1 2.27 1.554l1.9 10.135"
        fill="none"
        stroke="#ffffff"
        stroke-linecap="round"
        stroke-linejoin="round"
      />
      <path
        class="a"
        d="M72.688 58.576a2.907 2.907 0 0 1 2.878-.349 2.882 2.882 0 0 0 1.12.228 3.034 3.034 0 0 0 3.051-2.875v-1.214h5.577v1.214a8.619 8.619 0 0 1-12.042 7.92 2.864 2.864 0 0 1-.584-4.922z"
        fill="none"
        stroke="#ffffff"
        stroke-linecap="round"
        stroke-linejoin="round"
      />
      <path
        class="a"
        d="M62.209 55.416v-1.2a5.75 5.75 0 0 0-1.057-3.324 5.757 5.757 0 0 1-.861-3.143"
        fill="none"
        stroke="#ffffff"
        stroke-linecap="round"
        stroke-linejoin="round"
      />
      <path
        class="a"
        d="M69.258 58.576a2.907 2.907 0 0 0-2.878-.349 2.882 2.882 0 0 1-1.12.228 3.034 3.034 0 0 1-3.051-2.875v-1.214h-5.577v1.214a8.619 8.619 0 0 0 12.042 7.92 2.864 2.864 0 0 0 .584-4.922z"
        fill="none"
        stroke="#ffffff"
        stroke-linecap="round"
        stroke-linejoin="round"
      />
      <g>
        <path
          class="a"
          d="M63.8 30.2a9.561 9.561 0 0 0 16.531-4.371l.11-.014"
          fill="none"
          stroke="#ffffff"
          stroke-linecap="round"
          stroke-linejoin="round"
        />
        <path
          class="a"
          d="M73.363 27.857a3.986 3.986 0 0 1-4.78 0"
          fill="none"
          stroke="#ffffff"
          stroke-linecap="round"
          stroke-linejoin="round"
        />
        <path
          class="c"
          d="M67.388 21.872l-.01.009a.01.01 0 0 1 .01-.009m0-1a1.01 1.01 0 1 0 1.012 1.009 1.01 1.01 0 0 0-1.009-1.009z"
          style=""
          fill="#ffffff"
        />
        <path
          class="c"
          d="M74.558 21.872l-.009.009a.009.009 0 0 1 .009-.009m0-1a1.01 1.01 0 1 0 1.01 1.009 1.009 1.009 0 0 0-1.01-1.009z"
          style=""
          fill="#ffffff"
        />
        <path
          class="a"
          d="M59.819 28.105v12.412a.791.791 0 0 0 .921.787c1.176-.213 3.062-.9 3.062-3.09v-12.3a6.944 6.944 0 0 1 2.663-5.514c2.613-2.01 3.506-3.512 4.508-6.889 0 0 2.079 7.008 9.47 7.951"
          fill="none"
          stroke="#ffffff"
          stroke-linecap="round"
          stroke-linejoin="round"
        />
        <path
          class="a"
          d="M82.116 18.964A11.642 11.642 0 0 0 70.973 7.853 11.642 11.642 0 0 0 59.83 18.964"
          fill="none"
          stroke="#ffffff"
          stroke-linecap="round"
          stroke-linejoin="round"
        />
      </g>
      <g>
        <path
          class="a"
          d="M58.856 28.105H61a.5.5 0 0 0 .505-.5v-8.136a.5.5 0 0 0-.505-.505h-3.154V27.1a1.01 1.01 0 0 0 1.01 1.005z"
          fill="none"
          stroke="#ffffff"
          stroke-linecap="round"
          stroke-linejoin="round"
        />
        <path
          class="a"
          d="M56.018 27.191h1.828v-7.313h-1.828a1.829 1.829 0 0 0-1.828 1.828v3.657a1.828 1.828 0 0 0 1.828 1.828z"
          fill="none"
          stroke="#ffffff"
          stroke-linecap="round"
          stroke-linejoin="round"
        />
        <path
          class="a"
          d="M84.1 28.105h-3.152a.5.5 0 0 1-.5-.5v-8.136a.5.5 0 0 1 .5-.505H84.1z"
          fill="none"
          stroke="#ffffff"
          stroke-linecap="round"
          stroke-linejoin="round"
        />
        <path
          class="a"
          d="M85.928 27.191H84.1v-7.313h1.828a1.829 1.829 0 0 1 1.828 1.828v3.657a1.828 1.828 0 0 1-1.828 1.828z"
          fill="none"
          stroke="#ffffff"
          stroke-linecap="round"
          stroke-linejoin="round"
        />
        <path
          class="a"
          d="M80.57 33.434c3.238 0 3.53-2.013 3.53-2.944v-2.385"
          fill="none"
          stroke="#ffffff"
          stroke-linecap="round"
          stroke-linejoin="round"
        />
        <path
          class="a"
          d="M57.846 18.964v-.837a13.127 13.127 0 1 1 26.254 0v.837"
          fill="none"
          stroke="#ffffff"
          stroke-linecap="round"
          stroke-linejoin="round"
        />
      </g>
    </g>
  </g>
</svg>
