<svg xmlns="http://www.w3.org/2000/svg" viewBox="0 0 100 100">
  <g class="nc-icon-wrapper">
    <path
      class="a"
      d="M28.592 43.851a3.729 3.729 0 0 0 .113-.877 3.776 3.776 0 0 0-6.075-3.012A7.582 7.582 0 0 0 9.267 44.87v.049a3.57 3.57 0 0 0-.476-.049 3.793 3.793 0 0 0 0 7.586H25.86a4.734 4.734 0 0 0 2.732-8.605z"
      fill="none"
      stroke="#ffffff"
      stroke-linecap="round"
      stroke-linejoin="round"
    />
    <path
      class="a"
      d="M19.964 81a36.932 36.932 0 0 1 20.385-20.825"
      fill="none"
      stroke="#ffffff"
      stroke-linecap="round"
      stroke-linejoin="round"
    />
    <path
      class="a"
      d="M85.622 74.86a36.646 36.646 0 0 1 3.44 7.182"
      fill="none"
      stroke="#ffffff"
      stroke-linecap="round"
      stroke-linejoin="round"
    />
    <path
      class="a"
      d="M69.757 60.814a36.788 36.788 0 0 1 7.411 4.564"
      fill="none"
      stroke="#ffffff"
      stroke-linecap="round"
      stroke-linejoin="round"
    />
    <path
      class="a"
      d="M78.862 89.5a7.565 7.565 0 0 0 .058-.954.337.337 0 0 0-.335-.331h-3.806a1.95 1.95 0 0 1-1.95-1.949v-2.432a1.95 1.95 0 0 1 1.95-1.95h8.334a4.874 4.874 0 0 0 4.578-3.2"
      fill="none"
      stroke="#ffffff"
      stroke-linecap="round"
      stroke-linejoin="round"
    />
    <path
      class="a"
      d="M35.018 84.33a9 9 0 0 0-.186 1.416 9.712 9.712 0 0 0 1.859 6.269"
      fill="none"
      stroke="#ffffff"
      stroke-linecap="round"
      stroke-linejoin="round"
    />
    <path
      class="a"
      d="M54.553 62.326a4.562 4.562 0 0 0-.175.709 4.876 4.876 0 0 0 4.807 5.692 3.906 3.906 0 0 1 3.773 4.9 4 4 0 0 1-3.93 2.9H45.852"
      fill="none"
      stroke="#ffffff"
      stroke-linecap="round"
      stroke-linejoin="round"
    />
    <path
      class="a"
      d="M91.649 57.935A7.176 7.176 0 0 0 81.6 59.324c-1.992 2.631-1.5 10.238-1.286 12.7a.722.722 0 0 0 .852.645c2.43-.463 9.88-2.056 11.871-4.687a7.171 7.171 0 0 0-1.388-10.047zm-5.755 7.339a2.152 2.152 0 1 1 3.015-.416 2.148 2.148 0 0 1-3.015.416z"
      fill="none"
      stroke="#ffffff"
      stroke-linecap="round"
      stroke-linejoin="round"
    />
    <path
      class="a"
      d="M32.655 66.9a7.175 7.175 0 0 0-3.341 9.578c1.434 2.972 8.431 6 10.722 6.931a.722.722 0 0 0 .964-.467c.694-2.374 2.67-9.732 1.235-12.7a7.172 7.172 0 0 0-9.58-3.342zm3.912 8.466a2.152 2.152 0 1 1 1-2.873 2.15 2.15 0 0 1-1 2.87z"
      fill="none"
      stroke="#ffffff"
      stroke-linecap="round"
      stroke-linejoin="round"
    />
    <path
      class="a"
      d="M50.967 50.004h9.134v5.481h-9.134z"
      fill="none"
      stroke="#ffffff"
      stroke-linecap="round"
      stroke-linejoin="round"
    />
    <path
      class="a"
      d="M67.409 59.138H43.66a3.653 3.653 0 0 1 3.653-3.654h16.442a3.654 3.654 0 0 1 3.654 3.654z"
      fill="none"
      stroke="#ffffff"
      stroke-linecap="round"
      stroke-linejoin="round"
    />
    <path
      class="a"
      d="M83.851 42.696v-3.542"
      fill="none"
      stroke="#ffffff"
      stroke-linecap="round"
      stroke-linejoin="round"
    />
    <path
      class="a"
      d="M83.851 22.578V12.552a4.567 4.567 0 0 0-4.567-4.567h-47.5a4.567 4.567 0 0 0-4.567 4.567v24.1"
      fill="none"
      stroke="#ffffff"
      stroke-linecap="round"
      stroke-linejoin="round"
    />
    <path
      class="a"
      d="M33.09 50h46.194a4.568 4.568 0 0 0 4.567-4.568V42.7h-52"
      fill="none"
      stroke="#ffffff"
      stroke-linecap="round"
      stroke-linejoin="round"
    />
    <path
      class="b"
      d="M55.534 45.35a1 1 0 1 0 1 1 1 1 0 0 0-1-1z"
      fill="#830e70"
      stroke="#ffffff"
    />
    <path
      class="a"
      d="M62.006 36.4a2.088 2.088 0 0 1-2.086-2.08V21.347l-1.737 1.736a2.085 2.085 0 1 1-2.949-2.948l5.3-5.3a2.085 2.085 0 0 1 2.949 0l5.3 5.3a2.085 2.085 0 1 1-2.949 2.948l-1.737-1.736V34.32a2.087 2.087 0 0 1-2.091 2.08z"
      fill="none"
      stroke="#ffffff"
      stroke-linecap="round"
      stroke-linejoin="round"
    />
    <path
      class="a"
      d="M48.316 36.405a2.072 2.072 0 0 1-1.474-.611l-5.3-5.3a2.085 2.085 0 1 1 2.949-2.948l1.737 1.736v-12.97a2.086 2.086 0 0 1 4.171 0v12.973l1.737-1.736a2.085 2.085 0 1 1 2.952 2.951l-5.3 5.3a2.073 2.073 0 0 1-1.472.605z"
      fill="none"
      stroke="#ffffff"
      stroke-linecap="round"
      stroke-linejoin="round"
    />
    <path
      class="a"
      d="M93.661 30.065a2.515 2.515 0 0 0-3.975-2.593 5.054 5.054 0 0 0-8.909 3.272v.032a2.556 2.556 0 0 0-.318-.032 2.529 2.529 0 0 0 0 5.057h11.38a3.156 3.156 0 0 0 1.822-5.736z"
      fill="none"
      stroke="#ffffff"
      stroke-linecap="round"
      stroke-linejoin="round"
    />
  </g>
</svg>
