<svg xmlns="http://www.w3.org/2000/svg" viewBox="0 0 100 100">
  <g class="nc-icon-wrapper">
    <defs />
    <path class="a" d="M39.741 57.105v-1.02a2.634 2.634 0 0 1 3.288-2.553l3.574.879A2.676 2.676 0 0 1 48.42 56l2.7 6.76a2.632 2.632 0 0 1-1.2 3.308l-2.892 1.56" fill="none" stroke="#ffffff" stroke-linecap="round" stroke-linejoin="round" />
    <path class="a" d="M26.958 57.072a21.445 21.445 0 1 1 33.208 22.177" fill="none" stroke="#ffffff" stroke-linecap="round" stroke-linejoin="round" />
    <path class="a" d="M65.392 74.071a21.447 21.447 0 0 0-14.215-33.613l-4.472 5.123a1.92 1.92 0 0 0 .49 3.043l2.417 1.2 4.832 2.41a2.449 2.449 0 0 1 .9.939l3.368 7.627a1.917 1.917 0 0 1-.142 1.818l-2.9 4.329a1.928 1.928 0 0 0-.123 1.92l2.859 5.7a1.9 1.9 0 0 0 2.308.959c4.986-1.683 4.486-1.583 4.678-1.455z" fill="none" stroke="#ffffff" stroke-linecap="round" stroke-linejoin="round" />
    <path class="a" d="M45.613 81.138h3.129L42.059 60.42a1.4 1.4 0 0 0-1.331-.969h-2.111z" fill="none" stroke="#ffffff" stroke-linecap="round" stroke-linejoin="round" />
    <path class="a" d="M18.329 81.138h28.683v3.5H21.127a2.8 2.8 0 0 1-2.8-2.8z" fill="none" stroke="#ffffff" stroke-linecap="round" stroke-linejoin="round" />
    <path class="a" d="M47.012 81.138h12.661a.7.7 0 0 1 .7.7 2.8 2.8 0 0 1-2.8 2.8H47.012z" fill="none" stroke="#ffffff" stroke-linecap="round" stroke-linejoin="round" />
    <path class="a" d="M30 69.522a1.554 1.554 0 0 1 .741-1.309 1.605 1.605 0 0 0-1.257-.68c-.535-.055-1.044.315-1.315.315s-.691-.308-1.135-.3a1.683 1.683 0 0 0-1.422.862 3.576 3.576 0 0 0 .436 3.463c.288.418.632.887 1.085.87.436-.018.6-.282 1.126-.282s.673.282 1.134.273.765-.425 1.052-.844a3.739 3.739 0 0 0 .475-.978 1.516 1.516 0 0 1-.92-1.39z" fill="none" stroke="#ffffff" stroke-linecap="round" stroke-linejoin="round" />
    <path class="a" d="M28.823 65.747l.631-.631" fill="none" stroke="#ffffff" stroke-linecap="round" stroke-linejoin="round" />
    <path class="a" d="M18.329 81.138h27.284l-7-21.687H13.255a1.4 1.4 0 0 0-1.332 1.828z" fill="none" stroke="#ffffff" stroke-linecap="round" stroke-linejoin="round" />
    <circle class="a" cx="68.134" cy="27.803" r="9.234" fill="none" stroke="#ffffff" stroke-linecap="round" stroke-linejoin="round" />
    <path class="a" d="M63.085 27.52v3.361a.776.776 0 0 0 .429.7l4.346 2.173a.779.779 0 0 0 .7 0l4.34-2.178a.776.776 0 0 0 .429-.7V27.52" fill="none" stroke="#ffffff" stroke-linecap="round" stroke-linejoin="round" />
    <path class="a" d="M68.924 22.756a1.6 1.6 0 0 0-1.434 0l-5.576 2.788a.777.777 0 0 0 0 1.39l5.576 2.788a1.6 1.6 0 0 0 1.434 0l5.576-2.788a.777.777 0 0 0 0-1.39z" fill="none" stroke="#ffffff" stroke-linecap="round" stroke-linejoin="round" />
    <path class="a" d="M74.919 26.196v3.841" fill="none" stroke="#ffffff" stroke-linecap="round" stroke-linejoin="round" />
    <g>
      <circle class="a" cx="37.677" cy="24.597" r="9.234" fill="none" stroke="#ffffff" stroke-linecap="round" stroke-linejoin="round" />
      <path class="a" d="M41.359 23.551a3.47 3.47 0 1 0-6.123 2.233 3.083 3.083 0 0 1 .726 1.986v.406h3.855v-.406a3.077 3.077 0 0 1 .726-1.986 3.452 3.452 0 0 0 .816-2.233z" fill="none" stroke="#ffffff" stroke-linecap="round" stroke-linejoin="round" />
      <path class="a" d="M39.046 29.718h-2.313a.771.771 0 0 1-.771-.771v-.771h3.855v.771a.771.771 0 0 1-.771.771z" fill="none" stroke="#ffffff" stroke-linecap="round" stroke-linejoin="round" />
      <path class="a" d="M39.046 30.1a1.157 1.157 0 0 1-2.313 0v-.386h2.313z" fill="none" stroke="#ffffff" stroke-linecap="round" stroke-linejoin="round" />
      <path class="a" d="M37.89 18.539v-.771" fill="none" stroke="#ffffff" stroke-linecap="round" stroke-linejoin="round" />
      <path class="a" d="M41.433 20.007l.545-.545" fill="none" stroke="#ffffff" stroke-linecap="round" stroke-linejoin="round" />
      <path class="a" d="M42.901 23.551h.771" fill="none" stroke="#ffffff" stroke-linecap="round" stroke-linejoin="round" />
      <path class="a" d="M34.346 20.007l-.545-.545" fill="none" stroke="#ffffff" stroke-linecap="round" stroke-linejoin="round" />
      <path class="a" d="M32.878 23.551h-.771" fill="none" stroke="#ffffff" stroke-linecap="round" stroke-linejoin="round" />
    </g>
    <g>
      <circle class="a" cx="85.766" cy="50.212" r="9.234" fill="none" stroke="#ffffff" stroke-linecap="round" stroke-linejoin="round" />
      <path class="a" d="M90.828 51.955V48.47H82.6a1.769 1.769 0 0 0 0 3.485z" fill="none" stroke="#ffffff" stroke-linecap="round" stroke-linejoin="round" />
      <path class="a" d="M91.642 52.769a.813.813 0 0 1-.814.814h-9.073a3.423 3.423 0 0 1 0-6.742h9.073a.815.815 0 0 1 0 1.629H82.6a1.769 1.769 0 0 0 0 3.485h8.231a.813.813 0 0 1 .811.814z" fill="none" stroke="#ffffff" stroke-linecap="round" stroke-linejoin="round" />
    </g>
    <path class="a" d="M21.251 47.431l7.621 4.396" fill="none" stroke="#ffffff" stroke-linecap="round" stroke-linejoin="round" />
    <path class="a" d="M42.799 40.824l-3.928-7.07" fill="none" stroke="#ffffff" stroke-linecap="round" stroke-linejoin="round" />
    <path class="a" d="M58.022 42.74l5.884-6.725" fill="none" stroke="#ffffff" stroke-linecap="round" stroke-linejoin="round" />
    <path class="a" d="M68.446 55.467l8.558-2.334" fill="none" stroke="#ffffff" stroke-linecap="round" stroke-linejoin="round" />
    <g>
      <circle class="a" cx="14.234" cy="41.429" r="9.234" fill="none" stroke="#ffffff" stroke-linecap="round" stroke-linejoin="round" />
      <path class="a" d="M11.263 41.215a2.971 2.971 0 0 0 5.942 0v-1.486a2.971 2.971 0 0 0-5.942 0z" fill="none" stroke="#ffffff" stroke-linecap="round" stroke-linejoin="round" />
      <path class="a" d="M20.406 48.3a9.235 9.235 0 0 1-12.342 0 6.684 6.684 0 0 1 12.336-.012" fill="none" stroke="#ffffff" stroke-linecap="round" stroke-linejoin="round" />
      <path class="a" d="M11.287 39.346a2.971 2.971 0 0 1 5.413-1.271 5.413 5.413 0 0 1-5.413 1.271z" fill="none" stroke="#ffffff" stroke-linecap="round" stroke-linejoin="round" />
    </g>
  </g>
</svg>
